<svg xmlns="http://www.w3.org/2000/svg" viewBox="0 0 300 300">
  <g transform="translate(-150 0)" style="fill:none;stroke:#fff;stroke-linecap:round;stroke-linejoin:round">
    <circle id="circ4" opacity="0.5" r="115" cx="300" cy="150" style="stroke-width:1.492432"/>
    <circle id="circ5" opacity="0.2" r="148" cx="300" cy="150" style="stroke-width:1.492432"/>

    <g>
      <circle id="circ2" r="115" opacity="0.1" cx="300" cy="150" style="stroke-width:1.492432"/>
      <animateTransform attributeName="transform" attributeType="XML"
                        type="scale"
                        from="1" to="1.1"
                        begin="0s" dur="2s"
                        repeatCount="indefinite"
                        additive="sum"
      />
      <animateTransform attributeName="transform" attributeType="XML"
                        type="translate"
                        from="0 0" to="-30 -15"
                        begin="0s" dur="2s"
                        fill="freeze"
                        repeatCount="indefinite"
                        additive="sum"
      />
      <animate id="animation1"
               attributeName="opacity"
               from="1" to="0.5" dur="2s"
               begin="0s"
               repeatCount="indefinite"
      />
    </g>
   <path d="m 334.86875 162.72066 c .15288 -.26129 .32731 -.52321 .56771 -.74147 l 1.72347 -1.72395 m 3.55667 5.38949 l -.82907 .8294 c -.69837 .67631 -1.61437 .98186 -2.50938 .89455 m 15.01272 .17516 l -.98194 .98187 c -1.22174 1.22225 -3.25093 1.20012 -4.47328 -.0218 c -.32731 -.34921 -.56708 -.74208 -.71995 -1.17861 c -1.24393 1.22227 -3.25093 1.20014 -4.47328 -.0218 c -.43641 -.45866 -.71997 -1.02552 -.85065 -1.61513 m 19.2677 -14.09534 c 1.2439 .95974 2.07296 2.48754 2.11673 4.66954 c .0653 3.31695 -2.92425 6.21886 -6.5031 6.04425 h -.0218 h -.0876 h -.0653 c -.0437 0 -.0869 0 -.13061 -.0218 h -.0437 c -.0437 0 -.10898 0 -.15288 -.0222 h -.0218 c -.0653 0 -.10899 0 -.17451 -.0218 c -.0659 0 -.13127 -.0222 -.17517 -.0222 l -9.92847 -1.85489 c -5.06195 -.93821 -9.31701 4.47341 -4.86592 5.19336 l 15.36211 2.48754 l 7.52819 1.22227 c 1.26548 .0436 3.03272 -.10893 5.04036 -.43652 l 6.65535 3.07654 m -9.81884 -31.50867 c -1.04728 -.1525 -2.13831 -.10893 -3.51291 .30555 l -11.63039 3.33846 c -1.04787 .30555 -1.9423 .41501 -3.99369 2.11681 l -12.35036 10.32156 c -3.44757 2.85828 .74216 5.95697 5.01879 3.09869 l 1.74567 -1.15648 m 42.65974 -4.25515 l -12.93964 -11.12882 m 31.61864 17.08579 l -17.95902 -7.52844 l -9.53523 20.83922 l 24.89734 12.74332 m -19.9223 -15.27452 c .23977 -.50168 .82908 -.71994 1.353 -.50168 c .50176 .23976 .71997 .85089 .50176 1.35257 c -.24039 .50171 -.85126 .74211 -1.35301 .50171 c -.50175 -.23979 -.74216 -.82879 -.50175 -1.3526 z m -54.88003 2.48755 c -.21819 .13092 -.30512 .41439 -.17451 .63265 c .13127 .24039 .41483 .30555 .63304 .17471 c .23978 -.1087 .32732 -.41439 .19592 -.63265 c -.13061 -.21826 -.41422 -.30555 -.65462 -.17471 z m 18.33011 -16.75869 c 1.67973 -1.28743 3.49135 -2.68367 5.52055 -4.18937 c 11.43375 -8.64126 18.52553 -13.07101 18.52553 -13.07101 m -40.41232 31.18231 c 4.95346 -4.58225 8.9034 -8.00862 14.09663 -12.13219 m 7.15711 2.3781 c 1.46212 -1.00338 3.01116 -2.09468 4.66992 -3.27329 c 11.7179 -8.29203 18.08971 -13.68152 18.08971 -13.68152 m -42.2671 29.19645 c 4.62554 -2.64002 8.37885 -4.86628 12.41569 -7.4848 m 27.34201 -26.38118 c -.50238 -.0658 -.96036 .0436 -1.33144 .32707 c -.8944 .71997 -.80749 2.29145 .21819 3.51307 c 1.00413 1.22226 2.57475 1.63666 3.46977 .91668 c .41424 -.32708 .63243 -.85089 .63243 -1.43989 m -3.46914 -2.90254 c -.72055 .50168 -.74214 1.7018 -.0223 2.70581 c .72059 .98186 1.89855 1.39686 2.6185 .89455 c .0437 -.0218 .0659 -.0436 .0875 -.0873 m -.19648 -5.38948 c -.71997 .50168 -.74153 1.7018 -.0218 2.70581 c .71997 .98186 1.89853 1.37474 2.6185 .87241 c .74217 -.50168 .74217 -1.7018 .0437 -2.68367 c -.71997 -1.004 -1.89852 -1.39686 -2.64069 -.89455 z m -2.48722 1.87642 l 2.48722 -1.87642 m .10909 5.47678 l 2.48783 -1.89856 m -46.10792 29.26224 c -.0869 .48016 .0659 1.04763 .41484 1.57084 c .37108 .48018 .85126 .80787 1.30924 .91671 m -1.78943 -2.00739 c 0 0 -.82907 .71994 -1.50525 1.98586 c -.67681 1.26529 1.17794 .82879 3.03272 -.0873 m -2.94581 -.0658 c 0 0 .65462 .589 .61085 .91668 m 7.31061 -65.70305 c -4.49547 -6.72093 -13.22381 -11.390581 -17.39134 -11.06327 c .85065 3.64408 1.72348 7.28817 2.59631 10.93232 c .2182 .89456 1.15638 1.54934 2.07298 1.46203 c 4.25506 -.39287 8.48854 -.8294 12.72205 -1.33108 z m 8.7498 41.83094 c -.65464 -3.68768 -1.35303 -7.37596 -2.073 -11.06364 c -1.70189 -8.70642 -3.60044 -17.39133 -5.58587 -26.03197 m -60.33525 60.33507 c 1.61499 7.17861 3.29531 14.31418 5.01879 21.47127 c .21819 .89519 1.15638 1.54934 2.07299 1.46202 c 10.97637 -1.04702 21.92995 -2.26928 32.70968 -4.34183 c 10.77974 -2.07316 21.40661 -5.01936 31.94595 -8.29203 c .89441 -.28405 1.50529 -1.26593 1.37459 -2.18261 c -.65463 -4.34183 -1.33082 -8.70643 -2.02921 -13.04887 m -76.89676 -23.47926 c .0436 .17471 .0653 .34921 .10898 .52384 m 64.93931 -37.18293 c -1.0257 .13092 -2.05142 .23978 -3.07712 .34922 c -3.20777 .37073 -6.43714 .67631 -9.64493 .98186 c -.9166 .0873 -1.85476 -.56747 -2.07298 -1.46203 c -.87283 -3.64415 -1.74566 -7.28824 -2.59631 -10.93232 c -6.69912 .938274 -13.35448 2.0075 -19.94448 3.31677 c -10.77977 2.11662 -21.44977 4.84425 -32.05508 7.72437 c -.89453 .24039 -1.50552 1.20013 -1.35276 2.11681 c 1.41811 9.36122 2.90242 18.72241 4.53898 28.03997 m 9.12098 -20.68614 c 12.41632 -3.40423 24.81043 -5.30281 24.81043 -5.30281 m -11.97989 64.11008 c -3.2947 -1.46205 -6.34961 -.47957 -.76372 -2.15986 c .32731 -.0873 16.08206 -5.36796 11.52126 -4.32094 c -6.39338 1.44053 -4.97501 8.24841 -4.71304 11.52169 c .41485 5.38949 -2.64008 -2.20413 -1.87634 -2.182 c 5.06192 .1525 4.14595 -4.1242 3.99308 -.87304 c -.10899 2.61852 2.83672 -.78574 2.79295 -2.18198 c .0875 .0218 10.49558 4.75684 12.72142 .80726 c .9166 -1.57086 -1.00353 1.41837 -.61086 -.82939 c .10899 -.69781 .48018 -3.77499 -.30574 -4.08055 c 0 -.0873 -.15223 9.03412 .78592 3.27328 c 1.04728 -6.37134 1.83258 4.47342 4.29884 -1.5272 c .54552 -1.33108 -.0875 2.11621 2.85827 .0873 c 1.50588 -1.04765 1.65814 1.57087 3.84023 -.0222 m -47.35123 -47.19883 c 24.02511 -6.61174 48.02805 -10.27728 48.02805 -10.27728 m -47.46033 13.81249 c 24.00291 -6.61175 48.00583 -10.2779 48.00583 -10.2779 m -74.93307 54.68368 l 4.14597 -2.26929 c 2.79308 1.6803 6.58996 2.40024 9.645 2.16045 v .0436 l 20.22803 -2.66215 c .76374 -.10936 1.2433 -.37134 1.4837 -.74208 c .32731 -.52381 .21819 -1.20013 -.17451 -1.89855 c -.41484 -.69844 -1.11323 -1.41838 -1.98607 -1.98586 c -1.20014 -.76361 -2.7276 -1.24378 -4.29881 -1.04703 l -9.36078 1.24377 l 7.63728 -4.18997 l 18.91881 -10.40824 c 1.52744 -.8294 2.09455 -2.7716 1.2439 -4.29881 c -.82969 -1.50568 -2.77137 -2.07316 -4.29883 -1.24378 l -18.91879 10.38674 l -.2404 -.43653 l 5.25919 -2.88042 c 1.52747 -.85091 2.07299 -2.77099 1.24393 -4.2988 c -.82969 -1.52721 -2.77138 -2.09468 -4.29884 -1.24379 l -5.237 2.88042 l -.26198 -.45803 l 4.14596 -2.26929 c 1.50589 -.82939 2.07297 -2.7716 1.24392 -4.2988 c -.82907 -1.52782 -2.77138 -2.07315 -4.29883 -1.24379 l -4.12439 2.26931 l -.2398 -.45865 l 2.26963 -1.24379 c 1.52745 -.82876 2.09456 -2.77097 1.26549 -4.29817 c -.85127 -1.52784 -2.77137 -2.09531 -4.29883 -1.24379 l -8.48838 4.64741 l -.0218 .0222 l -3.40404 1.87642 c -5.38976 2.96773 -8.77199 7.44114 -9.23021 11.47802 l -4.21142 2.31294 m -20.75164 7.9428 l 19.59516 -10.01598 l 11.01954 20.07562 l -29.58911 18.50416 m 24.91946 -21.27574 c -.26186 -.5017 -.89467 -.67631 -1.37472 -.41439 c -.50188 .28342 -.67646 .89455 -.41461 1.39625 c .28368 .48017 .89466 .65477 1.39656 .39288 c .48004 -.26193 .65462 -.89458 .39277 -1.37474 z m 137.2535 3.94958 c -14.42333 39.71412 -57.21438 62.27725 -98.63082 50.84296 c -22.9771 -6.34983 -40.93569 -21.88631 -50.99517 -41.54693 m -7.83369 -23.45772 c -1.98569 -11.49955 -1.52744 -23.61021 1.78932 -35.58993 c 12.02334 -43.532928 57.06174 -69.06346 100.5943 -57.04015 c 37.70631 10.430421 61.92805 45.627911 59.89821 83.16004" transform="translate(-6)" style="stroke-width:1.492432"/>
  </g>
  <animate id="animation4"
           attributeName="opacity"
           from="0" to="1" dur="1s"
           begin="0s"
  />
</svg>
