<svg xmlns="http://www.w3.org/2000/svg" viewBox="0 0 722.83459 219.685"><g transform="matrix(1.25 0 0 -1.25 0 219.685)" style="fill-rule:evenodd"><g style="fill:#fff"><path d="m 75.0991 171.6644 c .0618 .005 .1239 .007 .1863 .007 h 13.4971 c .5414 0 .9819 .0182 1.5049 -.2098 c .5653 -.2463 1.0231 -.7066 1.2257 -1.309 c 6.3513 -18.8087 12.4699 -37.7036 18.3252 -56.6538 c 7.461 -24.1557 14.5196 -48.3392 21.2845 -72.6778 c .5456 -1.4657 -.6605 -2.8919 -2.179 -2.8919 l -10.4998 .0063 c -.5117 0 -1.0608 -.0355 -1.552 .1193 c -.7123 .2257 -1.294 .7744 -1.4964 1.51 c -8.8492 31.6746 -18.2619 63.1593 -28.3448 94.506 l .2727 -.8476 c -3.9316 12.8407 -7.9684 25.655 -12.1184 38.4466 l -.106 -.006 z"/><path d="m 28.3042 54.3311 c 16.3511 -.9675 32.6943 -2.0815 49.0215 -3.3937 c .944 -.0745 1.7799 -.6936 2.0384 -1.6035 c .8102 -2.842 1.6223 -5.6829 2.4265 -8.5261 c .534 -1.4652 -.6676 -2.8783 -2.1835 -2.8783 h -59.5605 c 3.011 5.9999 6.9041 13.7481 8.2576 16.4016"/></g><g style="fill:#fff"><path d="m 219.8409,121.7509 -3.4171,-83.2822 c -0.2648,-4.9062 -1.5035,-9.8807 -3.4937,-14.1718 -1.9012,-4.0978 -4.6177,-7.8029 -8.208,-10.9049 -6.7048,-5.7906 -15.5704,-8.5586 -24.7896,-9.1783 -10.7671,-0.7248 -22.0816,1.4896 -30.9396,5.2177 l -0.004,0.0015 c -1.0299,0.4328 -1.5869,1.5831 -1.2558,2.6753 l 2.446,7.9906 c 0.0258,0.1176 0.0618,0.2338 0.1083,0.3483 0.4592,1.1336 1.7501,1.6796 2.8837,1.2209 0.6894,-0.2812 1.3499,-0.5369 1.9749,-0.7636 7.2697,-2.6357 17.1301,-4.5587 26.0093,-3.7069 8.4708,0.8127 16.0098,4.1939 19.2124,12.0441 2.4216,5.9247 2.6594,15.0741 2.7085,21.4563 -14.8255,-15.6546 -39.4098,-17.9232 -53.8416,-0.557 -5.8909,7.0892 -9.4337,17.7225 -8.5705,32.5845 0.174,2.996 0.4915,5.8046 0.9434,8.434 2.5103,14.6083 9.1593,24.2223 18.5357,30.0138 9.2648,5.7228 21.1042,7.613 34.1697,6.8522 4.2803,-0.2495 8.678,-0.779 13.1439,-1.5466 1.9469,-0.3348 3.8339,-0.7149 5.6376,-1.1356 1.7776,-0.4144 3.5144,-0.8801 5.1877,-1.3929 0.936,-0.2875 1.599,-1.1753 1.5587,-2.1994 z m -62.1442,-26.0723 c -0.6896,-2.4511 -1.2175,-5.1539 -1.5673,-8.1218 -2.0794,-17.6431 2.8783,-28.366 10.315,-33.4497 3.1224,-2.1342 6.6969,-3.2873 10.3695,-3.5492 3.7162,-0.2648 7.5271,0.3761 11.0732,1.8309 8.5893,3.5252 15.6396,11.8202 16.1212,23.5905 l 1.5543,37.8649 c -4.1298,1.0936 -8.1806,1.9077 -12.0768,2.3664 -8.5393,1.006 -16.3145,0.314 -22.5192,-2.8721 -6.09,-3.1272 -10.7618,-8.7486 -13.2699,-17.6599"/><path d="m 361.0508,50.0644 0.4598,-0.9845 c 0.5179,-1.1083 0.4419,-2.3006 -0.7824,-3.0183 -8.5033,-4.9978 -19.9794,-7.979 -31.3075,-8.1227 -10.4601,-0.1327 -20.8517,2.1427 -28.7728,7.4619 -8.9013,5.9766 -13.496,16.1677 -14.8737,27.1165 -1.6049,12.7554 1.1835,26.6533 6.6033,35.9623 3.8948,6.6912 9.3654,11.505 15.8128,14.7053 7.0016,3.4756 15.1385,5.0264 23.6362,5.0009 16.2961,-0.0479 26.1473,-4.9082 31.4518,-13.0456 5.1865,-7.9563 5.8147,-18.8935 3.7885,-31.4133 -0.1812,-1.1318 -1.0684,-2.0046 -2.3499,-2.0046 l -64.5092,-3e-4 c -1.0956,-7.6434 0.2032,-14.169 3.2607,-19.315 2.0231,-3.4053 4.8319,-6.2266 8.2343,-8.3812 3.4274,-2.1705 7.4625,-3.6655 11.9126,-4.4036 9.3739,-1.5548 20.5583,0.2327 31.8297,6.0939 0.0811,0.0468 0.1658,0.0896 0.2546,0.1278 1.1789,0.5097 2.5761,0.027 3.1198,-1.0783 0.7265,-1.4748 1.4794,-3.0883 2.2314,-4.7012 z m -59.0584,44.2071 52.1271,-0.1445 c -8e-4,1.8065 -0.0473,3.6884 -0.2749,5.4782 -0.7232,5.671 -2.9081,9.9805 -6.5801,12.8168 -3.6615,2.8279 -8.905,4.2937 -15.7609,4.2937 -7.6774,0 -13.8954,-1.4638 -18.6327,-4.5216 -4.6902,-3.0271 -8.0263,-7.6889 -9.993,-14.1156 -0.3801,-1.2419 -0.6318,-2.5359 -0.8855,-3.807"/><path d="m 495.9125,48.2332 c -0.5738,0.5199 -1.1413,1.0752 -1.7008,1.6659 -3.0878,3.2607 -5.4967,7.1453 -7.2397,11.4095 -3.7468,9.1652 -4.4507,20.1724 -2.2346,30.528 2.2255,10.398 7.4081,20.1815 15.4259,26.8526 3.297,2.7428 7.0617,4.9589 11.2842,6.4754 5.5346,1.9883 12.1578,3.0189 18.7579,3.0212 6.4605,0.002 12.9249,-0.9845 18.3544,-3.0257 4.269,-1.605 7.9356,-3.8931 11.0268,-6.6926 7.228,-6.5463 11.2835,-15.8559 12.5642,-25.7377 1.2646,-9.7628 -0.1814,-20.1362 -3.9506,-28.9455 -2.2499,-5.2568 -5.3328,-9.9728 -9.169,-13.6953 -0.6009,-0.5828 -1.2432,-1.1588 -1.925,-1.7248 -7.9242,-6.5926 -19.3555,-10.1257 -30.6978,-10.2683 -11.3862,-0.1431 -22.7528,3.1252 -30.4959,10.1373 z m 33.643,67.9226 c -4.8079,0.01 -9.6208,-0.6984 -13.6148,-2.0857 -2.7068,-0.94 -5.1271,-2.3131 -7.259,-4.0195 -5.9774,-4.7835 -9.7665,-12.1992 -11.3981,-20.1509 -1.6472,-8.0266 -1.0868,-16.5453 1.6415,-23.4497 1.177,-2.9777 2.753,-5.6372 4.7214,-7.7989 0.5253,-0.5766 1.0899,-1.1271 1.6892,-1.6498 5.415,-4.7245 13.4252,-6.944 21.4943,-6.8811 8.1068,0.0635 16.2039,2.427 21.7499,6.8652 0.6534,0.5233 1.2747,1.0795 1.8578,1.6668 2.4928,2.5107 4.5386,5.7646 6.0747,9.4476 2.8097,6.7363 3.8883,14.8431 2.8803,22.4819 -0.9905,7.5109 -3.998,14.5153 -9.3603,19.1928 -2.0466,1.7852 -4.4467,3.238 -7.2182,4.2537 -3.8772,1.4204 -8.5561,2.118 -13.2587,2.1276"/><path d="m 403.7596,159.7864 -4.2582,-97.5778 c -0.1599,-3.5958 -0.3544,-7.9963 1.86,-10.4789 1.7731,-1.989 4.4669,-2.6538 7.3616,-2.7011 3.2338,-0.053 6.8241,0.6627 9.8198,1.264 1.3683,0.2009 2.6263,-0.5392 2.8168,-1.87 l 0.8064,-5.586 c 0.1673,-1.063 -0.5102,-2.1098 -1.6347,-2.435 -3.9186,-1.1454 -9.0822,-2.1362 -14.1018,-2.4023 -4.155,-0.22 -8.2559,0.057 -11.5815,1.1449 -4.4002,1.4383 -7.0707,4.0671 -8.6,7.3395 -1.4406,3.0823 -1.8017,6.6821 -1.643,10.3376 l 4.4617,102.2219 c -0.0343,1.1704 0.9142,2.1739 2.1691,2.2663 l 10.6396,0.7299 c 1.1316,0.0777 1.9298,-1.1531 1.8842,-2.253"/><path d="m 255.835 103.3166 l -2.7731 -63.2537 c -.0414 -.9964 -.779 -1.8125 -1.7541 -2.0514 c -.4884 -.1191 -1.1758 -.0783 -1.6705 -.0783 h -8.8815 c -2.0052 0 -2.3811 1.5268 -2.3153 3.026 l 3.0036 68.5083 c .1596 3.6414 .8328 7.2266 2.5347 10.294 c 1.7855 3.2182 4.6386 5.8034 9.0918 7.2187 c 3.3999 1.0809 7.5136 1.3553 11.6436 1.1356 c 4.9941 -.2659 10.0829 -1.2603 13.9181 -2.4109 c 1.0429 -.3107 1.6923 -1.2438 1.6339 -2.2263 c -.0164 -.2772 -.091 -.5567 -.1539 -.8289 l -1.1891 -5.1295 c -.2741 -1.1954 -1.527 -1.9548 -2.7978 -1.6971 c -2.9424 .6009 -6.4692 1.3166 -9.6965 1.2639 c -2.9387 -.0482 -5.7367 -.7316 -7.7406 -2.7793 c -2.4885 -2.5402 -2.6793 -6.9608 -2.8354 -10.5736 l -.0179 -.4175 z"/><path d="m 456.186,159.7864 -4.2584,-97.5778 c -0.1596,-3.5958 -0.3541,-7.9963 1.8603,-10.4789 1.7728,-1.989 4.4666,-2.6538 7.3616,-2.7011 3.2338,-0.053 6.8241,0.6627 9.8198,1.264 1.368,0.2009 2.6263,-0.5392 2.8168,-1.87 l 0.8064,-5.586 c 0.1673,-1.063 -0.5102,-2.1098 -1.6347,-2.435 -3.9186,-1.1454 -9.0822,-2.1362 -14.1018,-2.4023 -4.155,-0.22 -8.2559,0.057 -11.5815,1.1449 -4.4002,1.4383 -7.0708,4.0671 -8.6,7.3395 -1.4406,3.0823 -1.8017,6.6821 -1.643,10.3376 l 4.4614,102.2219 c -0.034,1.1704 0.9145,2.1739 2.1694,2.2663 l 10.6396,0.7299 c 1.1313,0.0777 1.9298,-1.1531 1.8841,-2.253"/></g><path d="m 38.6802 104.8042 c -11.0305 -21.2011 -22.2523 -42.3351 -32.798 -63.7883 c -.5329 -1.0871 -.0284 -2.3751 1.1273 -2.8766 c .6092 -.2642 1.4329 -.2098 2.0934 -.2098 h 10.9437 c 3.011 5.9999 6.9041 13.7481 8.2576 16.4016 c 15.1702 30.5478 30.9215 60.7734 47.1149 90.8464 c .9304 1.7297 1.7941 3.3313 2.8041 5.0083 c 1.3541 2.4213 2.8956 2.2498 3.6609 -.2381 l 1.9262 -5.8791 c 1.18 -3.6133 2.351 -7.2281 3.5132 -10.8451 c -3.9316 12.8407 -7.9684 25.655 -12.1184 38.4466 c -.4544 -.0144 -.8759 -.1533 -1.2271 -.3804 c -.356 -.2307 -.6406 -.5542 -.8144 -.9329 c -11.9696 -21.6828 -23.072 -43.6178 -34.4834 -65.5526" style="fill:#fff"/></g></svg>