<svg xmlns="http://www.w3.org/2000/svg" viewBox="0 0 100 100" preserveAspectRatio="true"><g><rect x="47.237" class="a" width="5.527" height="22.631" rx="2.763" fill="black"/><rect y="77.369" x="47.237" class="b" width="5.527" height="22.631" rx="2.763" opacity=".8" fill="black"/><rect y="-100" x="47.238" class="c" width="5.527" height="22.631" rx="2.763" transform="rotate(90)" opacity=".4" fill="black"/><rect y="-22.631" x="47.238" class="a" width="5.527" height="22.631" rx="2.763" transform="rotate(90)" fill="black"/><rect y="-120.711" x="-2.765" class="d" width="5.527" height="22.631" rx="2.763" transform="rotate(135)" opacity=".6" fill="black"/><rect y="-43.345" x="-2.764" class="a" width="5.527" height="22.631" rx="2.763" transform="rotate(135)" fill="black"/><rect y="-50" x="-73.475" class="a" width="5.527" height="22.631" rx="2.763" transform="rotate(-135)" fill="black"/><rect y="27.369" x="-73.475" class="e" width="5.527" height="22.631" rx="2.763" transform="rotate(-135)" opacity=".2" fill="black"/><rect y="-21.805" x="62.082" class="a" width="5.527" height="22.631" rx="2.763" transform="rotate(21.5)" fill="black"/><rect y="55.564" x="62.083" class="f" width="5.527" height="22.631" rx="2.763" transform="rotate(21.5)" opacity=".9" fill="black"/><rect y="-114.845" x="25.431" class="g" width="5.527" height="22.631" rx="2.763" transform="rotate(111.5)" opacity=".5" fill="black"/><rect y="-37.479" x="25.433" class="a" width="5.527" height="22.631" rx="2.763" transform="rotate(111.5)" fill="black"/><rect y="-115.789" x="-28.679" class="h" width="5.527" height="22.631" rx="2.763" transform="rotate(156.5)" opacity=".7" fill="black"/><rect y="-38.421" x="-28.681" class="a" width="5.527" height="22.631" rx="2.763" transform="rotate(156.5)" fill="black"/><rect y="-24.085" x="-68.552" class="a" width="5.527" height="22.631" rx="2.763" transform="rotate(-113.5)" fill="black"/><rect y="53.284" x="-68.553" class="i" width="5.527" height="22.631" rx="2.763" transform="rotate(-113.5)" opacity=".29" fill="black"/><animateTransform attributeName="transform" attributeType="XML" type="rotate" from="0 50 50" to="359 50 50" dur="1.5s" repeatCount="indefinite"/></g></svg>
